<?xml version="1.0" encoding="utf-8" ?><svg xmlns="http://www.w3.org/2000/svg" xmlns:xlink="http://www.w3.org/1999/xlink" width="901" height="528" viewBox="0 0 901 528"><path fill="#74697F" transform="scale(0.563125 0.589286)" d="M0 0L1600 0L1600 896L0 896L0 0Z"/><path fill="#74697F" transform="scale(0.563125 0.589286)" d="M875.657 312.291C882.904 311.451 895.881 311.066 902.992 312.651C921.231 316.579 923.248 326.259 909.358 338.377C885.422 358.718 858.701 371.47 831.456 386.317C829.251 387.519 828.257 390.607 827.78 392.941L828.125 393.642C833.063 394.161 839.264 394.02 844.318 394.048C841.322 396.249 828.955 394.118 828.11 396.935L829.241 397.547L826.156 397.737C822.063 400.549 807.28 443.272 802.621 452.511C795.216 435.781 788.853 418.406 781.392 401.59C776.108 401.706 762.137 398.655 759.316 399.246C744.752 402.299 652.258 416.802 691.536 377.242C706.941 363.321 733.419 350.354 752.571 342.186C760.552 338.782 772.863 334.335 779.842 330.14C781.072 330.489 782.192 330.273 783.48 330.161C785.959 329.162 789.722 328.074 792.363 327.225L796.039 327.948C796.971 329.429 797.399 330.231 798.153 331.81L810.068 328.58C810.883 325.48 810.977 324.976 813.028 322.414C814.505 321.735 817.022 320.99 818.643 320.451L822.963 319.625C833.213 318.905 849.911 314.745 862.644 313.622C866.852 312.612 871.322 312.53 875.657 312.291Z"/><defs><linearGradient id="gradient_0" gradientUnits="userSpaceOnUse" x1="794.31592" y1="359.39847" x2="812.99341" y2="446.0968"><stop offset="0" stop-color="#F5D59B"/><stop offset="1" stop-color="#F1D8C4"/></linearGradient></defs><path fill="url(#gradient_0)" transform="scale(0.563125 0.589286)" d="M823.025 386.639C852.827 370.816 882.808 358.743 907.16 333.782L909.358 338.377C885.422 358.718 858.701 371.47 831.456 386.317C829.251 387.519 828.257 390.607 827.78 392.941L828.125 393.642C833.063 394.161 839.264 394.02 844.318 394.048C841.322 396.249 828.955 394.118 828.11 396.935L829.241 397.547L826.156 397.737C822.063 400.549 807.28 443.272 802.621 452.511C795.216 435.781 788.853 418.406 781.392 401.59C776.108 401.706 762.137 398.655 759.316 399.246C744.752 402.299 652.258 416.802 691.536 377.242C693.522 379.397 694.232 380.208 696.619 381.968C672.503 412.272 771.389 394.276 781.895 392.855C791.727 391.526 799.983 395.941 812.688 390.783L823.025 386.639Z"/><path fill="#74697F" transform="scale(0.563125 0.589286)" d="M784.766 397.283L793.889 396.556C796.89 399.227 799.614 401.31 802.791 403.727C806.055 401.129 808.665 398.811 812.506 397.094L820.606 397.933C818.08 402.08 805.339 435.77 802.822 442.185C797.122 429.072 789.403 410.574 784.766 397.283Z"/><path fill="#7B6E78" transform="scale(0.563125 0.589286)" d="M812.688 390.783L823.025 386.639L824.551 389.409C824.545 391.876 823.506 397.516 820.606 397.933L812.506 397.094L813.431 394.98C812.641 393.874 812.758 392.21 812.688 390.783Z"/><path fill="#F4D6AC" transform="scale(0.563125 0.589286)" d="M813.431 394.98C821.05 394.485 820.701 395.427 824.551 389.409C824.545 391.876 823.506 397.516 820.606 397.933L812.506 397.094L813.431 394.98Z"/><path fill="#886D65" transform="scale(0.563125 0.589286)" d="M776.109 396.92C777.868 396.799 777.771 396.809 779.294 397.74L778.776 398.847L776.136 399.731C773.984 399.46 773.14 399.265 771.059 398.647C772.065 397.312 774.037 397.355 776.109 396.92Z"/><path fill="#F7F1EB" transform="scale(0.563125 0.589286)" d="M783.48 330.161C785.959 329.162 789.722 328.074 792.363 327.225L796.039 327.948C796.971 329.429 797.399 330.231 798.153 331.81C766.71 341.896 720.415 359.278 696.619 381.968C694.232 380.208 693.522 379.397 691.536 377.242C706.941 363.321 733.419 350.354 752.571 342.186C760.552 338.782 772.863 334.335 779.842 330.14C781.072 330.489 782.192 330.273 783.48 330.161Z"/><path fill="#F7F1EB" transform="scale(0.563125 0.589286)" d="M822.963 319.625C833.213 318.905 849.911 314.745 862.644 313.622L864.159 314.584C864.625 316.728 864.588 316.905 863.088 319.443C844.057 321.163 828.609 324.673 810.068 328.58C810.883 325.48 810.977 324.976 813.028 322.414C814.505 321.735 817.022 320.99 818.643 320.451L822.963 319.625Z"/><path fill="#F4D6AC" transform="scale(0.563125 0.589286)" d="M875.657 312.291C882.904 311.451 895.881 311.066 902.992 312.651C901.75 315.581 901.388 317.201 900.646 320.272C893.146 318.462 884.63 318.629 876.919 318.575L863.088 319.443C864.588 316.905 864.625 316.728 864.159 314.584L862.644 313.622C866.852 312.612 871.322 312.53 875.657 312.291Z"/><path fill="#F1D9BC" transform="scale(0.563125 0.589286)" d="M862.644 313.622C866.852 312.612 871.322 312.53 875.657 312.291C878.733 312.334 880.601 312.027 882.851 314.062L883.48 315.555C881.605 318.61 880.375 318.128 876.919 318.575L863.088 319.443C864.588 316.905 864.625 316.728 864.159 314.584L862.644 313.622Z"/><path fill="#F9D475" transform="scale(0.563125 0.589286)" d="M902.992 312.651C921.231 316.579 923.248 326.259 909.358 338.377L907.16 333.782C912.487 325.548 907.827 323.248 900.646 320.272C901.388 317.201 901.75 315.581 902.992 312.651Z"/><path fill="#F4D6AC" transform="scale(0.563125 0.589286)" d="M873.197 329.213C876.189 328.787 883.81 328.74 886.631 330.341C891.373 339.54 847.157 361.963 839.587 366.408L837.302 367.487C833.987 362.755 839.005 348.477 826.635 332.882C840.281 332.764 859.318 330.57 873.197 329.213Z"/><path fill="#74697F" transform="scale(0.563125 0.589286)" d="M843.159 349.246C840.229 346.719 837.263 343.845 836.802 339.766L837.555 338.376C843.636 337.189 859.067 335.403 863.498 340.283C864.407 346.312 855.405 351.903 850.719 354.458L848.76 355.581C846.252 355.702 845.922 355.714 843.906 354.253C842.266 351.287 842.476 352.622 843.159 349.246Z"/><path fill="#F1D9BC" transform="scale(0.563125 0.589286)" d="M843.159 349.246C845.661 350.961 848.262 352.696 850.719 354.458L848.76 355.581C846.252 355.702 845.922 355.714 843.906 354.253C842.266 351.287 842.476 352.622 843.159 349.246Z"/><path fill="#7B6E78" transform="scale(0.563125 0.589286)" d="M866.07 333.09C869.703 332.938 874.354 332.381 877.376 334.171C880.614 338.95 873.23 342.781 869.648 345.405C867.86 343.716 871.337 343.114 870.004 338.036C867.803 336.14 862.694 335.128 859.686 334.313C860.856 333.276 864.136 333.302 866.07 333.09Z"/><path fill="#F4D6AC" transform="scale(0.563125 0.589286)" d="M757.888 356.273C759.817 358.565 763.601 363.402 766.069 364.356C766.865 362.646 766.964 362.174 768.281 360.88C769.005 369.959 772.114 375.84 775.801 384.051C762.459 385.52 746.516 387.823 733.399 388.425C731.935 388.475 731.566 388.764 730.397 389.537C726.018 389.324 720.409 389.319 716.592 387.313C710.878 378.699 750.841 361.114 757.888 356.273Z"/><path fill="#74697F" transform="scale(0.563125 0.589286)" d="M756.305 361.546C766.337 369.696 761.565 370.138 769.725 380.099C764.196 381.317 755.279 382.007 749.406 382.625C745.384 382.901 739.748 384.306 737.875 380.206C738.803 375.14 751.867 365.385 756.305 361.546Z"/><path fill="#7B6E78" transform="scale(0.563125 0.589286)" d="M732.068 378.594C731.206 380.852 730.868 382.162 729.177 383.956C727.132 384.913 726.864 384.913 724.636 384.513C723.047 382.656 723.412 383.601 723.482 380.83C724.818 378.146 727.589 376.646 730.114 374.896L732.068 378.594Z"/><path fill="#886D65" transform="scale(0.563125 0.589286)" d="M742.999 368.586C739.163 371.762 735.231 374.755 732.068 378.594L730.114 374.896C735.1 371.799 737.606 370.791 742.999 368.586Z"/><path fill="#F7F1EB" transform="scale(0.563125 0.589286)" d="M800.054 521.065C808.977 520.973 822.596 521.526 831.077 520.852C864.154 518.225 873.551 551.923 839.981 560.597C843.211 566.381 849.333 579.009 855.201 582.235C855.794 582.561 861.154 583.527 862.874 584.063L862.579 585.235C858.495 588.262 854.32 588.025 849.301 588.137C836.867 584.937 833.345 570.675 826.49 559.703L816.291 559.484C816.372 565.043 815.979 576.481 816.39 582.406C816.429 582.963 818.976 584.531 819.182 587.072C817.168 588.481 804.52 587.707 801.478 587.509C800.548 585.51 803.883 585.91 803.904 579.805C803.958 563.897 804.318 547.871 804.051 531.968C803.955 526.228 804.057 524.751 800.054 521.065Z"/><path fill="#74697F" transform="scale(0.563125 0.589286)" d="M816.298 525.788C824.529 525.729 833.896 524.948 841.422 528.839C850.771 533.674 849.236 543.229 844.28 550.871C836.7 556.113 825.694 554.749 816.331 554.651L816.298 525.788Z"/><path fill="#F7F1EB" transform="scale(0.563125 0.589286)" d="M900.245 521.011C903.943 520.94 919.632 520.227 922.41 521.557L920.402 524.211C920.021 526.565 935.353 563.344 937.455 568.581C941.667 566.138 945.879 564.885 950.044 568.265C953.703 576.84 944.053 578.93 942.346 581.508C943.612 583.84 947.513 586.225 949.84 587.865C944.169 587.719 932.751 588.537 927.906 587.412C930.331 578.457 929.583 572.289 918.704 573.364C916.649 573.651 916.255 573.689 914.204 573.41L913.871 572.391C916.255 570.061 919.429 569.067 922.541 567.83C909.189 567.73 905.159 563.849 893.092 567.511C892.031 570.257 887.549 580.848 887.838 584.01C887.891 584.583 889.972 584.846 890.586 587.192C887.59 587.984 879.598 587.668 876.113 587.646C882.894 582.975 884.859 575.091 887.607 567.506C892.688 553.481 898.57 539.543 902.877 525.307C903.243 524.095 901.047 521.973 900.245 521.011Z"/><path fill="#74697F" transform="scale(0.563125 0.589286)" d="M907.792 526.911C909.677 529.707 920.753 558.076 922.543 562.545C917.503 562.525 914.05 562.185 909.086 561.653C903.163 561.199 899.577 561.708 893.917 562.83C898.117 551.603 902.963 537.638 907.792 526.911Z"/><path fill="#F7F1EB" transform="scale(0.563125 0.589286)" d="M588.829 521.064C593.639 520.968 606.324 520.297 610.363 521.457C609.581 522.686 609.006 523.668 608.309 524.946C608.518 528.76 623.105 562.529 625.539 568.596C630.342 566.561 636.656 564.251 639.544 570.396C639.002 576.152 631.937 578.691 630.799 581.714C632.116 584.026 635.693 586.141 638.028 587.769C631.283 587.641 624.925 587.809 618.184 587.991C616.168 586.385 617.772 583.322 617.163 580.56C616.569 577.862 615.722 575.764 614.609 573.258L604.492 573.429C602.386 573.115 603.093 573.633 602.038 572.26C603.92 570.15 607.325 568.996 610.024 567.824C609.677 567.648 592.294 566.443 590.639 565.98C589.143 565.561 583.211 567.046 581.242 567.562C579.382 571.981 577.296 578.917 575.738 583.651C577.077 585.014 578.497 586.342 579.879 587.664L563.749 587.747C564.757 587.16 568.984 584.794 569.369 583.84C577.083 564.753 584.345 545.177 591.194 525.76C591.759 524.158 589.871 522.398 588.829 521.064Z"/><path fill="#74697F" transform="scale(0.563125 0.589286)" d="M595.587 527.783C598.083 529.944 608.854 558.215 610.659 562.783C605.637 562.596 602.483 562.297 597.554 561.641C591.609 561.232 588.163 561.755 582.48 562.799C586.355 551.715 591.224 538.568 595.587 527.783Z"/><path fill="#74697F" transform="scale(0.563125 0.589286)" d="M802.387 269.831C808.405 281.429 817.705 306.546 822.963 319.625L818.643 320.451C817.022 320.99 814.505 321.735 813.028 322.414C810.977 324.976 810.883 325.48 810.068 328.58L798.153 331.81C797.399 330.231 796.971 329.429 796.039 327.948L792.363 327.225C789.722 328.074 785.959 329.162 783.48 330.161C782.192 330.273 781.072 330.489 779.842 330.14C775.798 327.388 741.314 329.554 734.491 329.826C738.201 335.929 742.004 339.402 745.879 346.72C740.152 341.225 732.16 334.275 727.184 328.597L727.378 326.888C729.639 325.211 773.908 325.191 780.607 324.946L802.387 269.831Z"/><path fill="#F1D9BC" transform="scale(0.563125 0.589286)" d="M802.387 269.831C808.405 281.429 817.705 306.546 822.963 319.625L818.643 320.451C813.406 307.332 807.982 294.069 802.988 280.875C796.374 294.255 788.708 315.83 783.48 330.161C782.192 330.273 781.072 330.489 779.842 330.14C775.798 327.388 741.314 329.554 734.491 329.826C738.201 335.929 742.004 339.402 745.879 346.72C740.152 341.225 732.16 334.275 727.184 328.597L727.378 326.888C729.639 325.211 773.908 325.191 780.607 324.946L802.387 269.831Z"/><path fill="#F1D9BC" transform="scale(0.563125 0.589286)" d="M804.686 318.244C806.969 319.498 810.873 322.193 813.028 322.414C810.977 324.976 810.883 325.48 810.068 328.58L798.153 331.81C797.399 330.231 796.971 329.429 796.039 327.948L792.363 327.225C797.333 325.712 800.967 321.771 804.686 318.244Z"/><path fill="#A6979E" transform="scale(0.563125 0.589286)" d="M793.772 322.685C796.079 320.452 798.189 317.977 801.217 317.076C803.127 317.162 803.244 317.109 804.686 318.244C798.922 319.085 795.957 324.036 793.772 322.685Z"/><path fill="#F7F1EB" transform="scale(0.563125 0.589286)" d="M721.539 520.889L784.388 520.907L784.417 532.403L778.75 526.636C772.373 526.283 765.629 526.302 759.212 526.224L759.104 570.448C759.011 574.794 760.385 585.697 759.652 587.185C756.737 588.188 746.236 588.068 743.304 587.128C743.976 586.593 744.628 586.047 745.229 585.432C747.795 582.806 746.585 532.828 746.578 526.053L727.229 526.609C725.075 528.77 724.761 529.889 722.252 530.248C721.067 528.049 721.491 523.623 721.539 520.889Z"/><path fill="#F7F1EB" transform="scale(0.563125 0.589286)" d="M965.51 521.044C969.728 520.93 981.311 520.259 984.759 521.463C979.692 526.594 981.438 535.388 981.427 542.602L981.372 582.477C991.732 581.663 1007.7 582.218 1019.13 581.81C1021.14 579.913 1022.41 578.754 1024.64 577.063L1025.63 577.581L1025.52 579.809L1024.53 587.72C1017.4 587.723 968.647 588.346 966.935 587.147C968.269 584.437 969.169 583.067 969.172 579.938C969.19 562.035 970.087 543.893 968.88 526.044C968.739 523.961 966.869 522.507 965.51 521.044Z"/><path fill="#F7F1EB" transform="scale(0.563125 0.589286)" d="M671.114 520.369C674.865 520.043 678.476 519.821 682.435 520.343C692.305 521.646 712.353 531.39 701.955 543.776C698.934 546.834 691.455 547.92 688.273 544.697C685.571 541.961 691.451 535.045 690.892 531.282C690.261 527.034 686.816 524.451 682.738 525.148C678.356 528.805 682.252 538.958 680.226 546.379L679.189 546.597C671.777 539.035 682.98 527.922 671.072 524.195C655.03 532.814 669.472 543.722 675.658 552.7C678.697 557.11 682.248 564.116 683.03 569.51C681.588 570.613 682.042 570.26 679.671 570.093C674.135 566.722 676.053 564.859 674.624 559.787C672.296 554.171 663.247 553.259 658.438 550.716C651.302 546.941 650.567 536.865 654.15 530.478C657.607 524.316 664.558 522.029 671.114 520.369Z"/><path fill="#F7F1EB" transform="scale(0.563125 0.589286)" d="M680.703 549.754C688.869 553.983 701.498 554.61 704.945 562.705C713.695 583.256 681.974 593.262 667.173 586.643C658.691 582.85 656.536 580.545 653.032 573.184C652.765 562.659 660.648 558.365 668.982 563.345C673.632 570.059 665.714 569.866 667.247 576.494C669.563 586.501 688.203 586.52 692.53 577.902C697.531 567.94 688.497 562.976 683.076 556.526C682.077 555.343 681.103 551.342 680.703 549.754Z"/><path fill="#F7F1EB" transform="scale(0.563125 0.589286)" d="M740.572 622.098C747.758 621.245 754.302 626.31 755.278 633.48C756.254 640.65 751.302 647.279 744.149 648.378C739.411 649.106 734.65 647.221 731.693 643.449C728.737 639.676 728.047 634.602 729.887 630.177C731.727 625.752 735.812 622.663 740.572 622.098Z"/><path fill="#74697F" transform="scale(0.563125 0.589286)" d="M738.613 626.162C743.639 624.225 749.283 626.723 751.229 631.744C753.175 636.765 750.688 642.414 745.67 644.369C740.639 646.329 734.972 643.834 733.021 638.8C731.069 633.765 733.575 628.104 738.613 626.162Z"/><path fill="#F7F1EB" transform="scale(0.563125 0.589286)" d="M707.003 622.058C714.263 621.558 720.565 627.011 721.112 634.267C721.658 641.522 716.244 647.858 708.991 648.45C701.674 649.048 695.268 643.575 694.716 636.255C694.165 628.934 699.679 622.564 707.003 622.058Z"/><path fill="#74697F" transform="scale(0.563125 0.589286)" d="M704.549 626.154C707.89 624.92 711.639 625.615 714.317 627.963C716.995 630.311 718.173 633.937 717.386 637.41C716.599 640.884 713.974 643.648 710.545 644.613C705.526 646.026 700.286 643.224 698.675 638.265C697.064 633.306 699.657 627.96 704.549 626.154Z"/><path fill="#F7F1EB" transform="scale(0.563125 0.589286)" d="M859.691 622.144C866.764 621.526 873.056 626.621 873.92 633.668C874.783 640.715 869.908 647.179 862.895 648.286C858.137 649.038 853.348 647.133 850.405 643.319C847.463 639.506 846.836 634.391 848.771 629.979C850.705 625.568 854.892 622.564 859.691 622.144Z"/><path fill="#74697F" transform="scale(0.563125 0.589286)" d="M857.385 626.245C862.391 624.273 868.046 626.748 869.993 631.763C871.94 636.779 869.436 642.421 864.41 644.342C859.421 646.25 853.827 643.768 851.894 638.788C849.961 633.809 852.415 628.203 857.385 626.245Z"/><path fill="#F7F1EB" transform="scale(0.563125 0.589286)" d="M666.344 622.613C671.599 622.517 682.152 621.442 685.293 626.185C684.634 632.01 682.217 633.152 686.371 638.362C687.555 639.847 686.552 642.955 686.117 644.83C681.261 649.227 672.989 647.986 666.361 647.866L666.344 622.613Z"/><path fill="#74697F" transform="scale(0.563125 0.589286)" d="M669.9 636.448C674.006 636.35 679.466 635.616 682.425 638.28C683.529 641.365 683.295 640.274 682.519 643.721C679.04 644.576 673.932 645.884 670.865 643.823C669.195 640.809 669.827 640.427 669.9 636.448Z"/><path fill="#74697F" transform="scale(0.563125 0.589286)" d="M670.117 625.772C673.682 625.682 678.037 625.129 680.789 627.301C682.099 630.452 681.759 629.415 681.275 633.046C678.455 633.513 673.156 634.416 670.868 632.846C669.362 629.881 669.961 629.578 670.117 625.772Z"/><path fill="#F7F1EB" transform="scale(0.563125 0.589286)" d="M883.602 622.63C886.514 622.57 890.76 622.274 893.56 622.655C904.775 624.18 908.251 632.489 897.725 639.04C899.756 641.655 902.661 644.529 902.594 647.542L900.01 648.457C897.682 644.635 892.54 634.775 887.064 640.46L887.147 641.052C887.543 644.024 887.939 645.486 886.279 647.67L884.4 647.681C882.846 645.216 883.575 626.886 883.602 622.63Z"/><path fill="#7B6E78" transform="scale(0.563125 0.589286)" d="M886.999 625.813C892.063 625.682 896.157 624.768 899.529 628.895C900.188 631.639 899.8 632.35 898.929 634.935C895.175 636.074 890.927 635.947 886.972 636.043L886.999 625.813Z"/><path fill="#F7F1EB" transform="scale(0.563125 0.589286)" d="M802.398 621.967C806.383 622.297 811.543 622.46 812.451 627.098C809.151 628.896 801.88 622.03 797.694 628.254C799.439 632.261 813.165 635.457 813.98 640.861C814.909 647.011 807.341 648.147 803.303 648.742C799.174 647.752 796.78 647.208 793.814 643.888C797.289 642.228 805.297 646.46 809.694 643.105C809.102 637.332 798.294 636.927 794.213 630.005C793.785 624.829 797.919 623.18 802.398 621.967Z"/><path fill="#F7F1EB" transform="scale(0.563125 0.589286)" d="M770.007 634.738C772.849 631.798 780.057 623.646 783.946 623.326L783.422 624.591L783.241 623.567L782.685 623.959L783.178 625.078C780.644 628.52 778.121 631.009 775.169 634.051C778.887 638.607 782.478 642.889 786.355 647.312L785.451 648.119C780.976 647.773 774.964 639.754 772.397 636.039C768.644 640.208 769.031 646.102 765.534 647.766C764.674 645.793 764.659 626.245 765.546 623.084L766.825 622.55L768.113 623.165C769.884 626.929 767.955 630.343 769.064 634.911L770.007 634.738Z"/><path fill="#F7F1EB" transform="scale(0.563125 0.589286)" d="M913.746 622.628C917.581 622.615 929.452 621.995 931.949 623.424L932.043 624.958C929.736 626.615 922.859 625.194 917.971 626.258C916.87 627.863 917.199 631.45 917.194 633.604L917.255 636.987C917.205 638.684 917.056 643.69 917.738 644.074C921.33 646.098 928.327 642.662 932.569 645.59L932.351 646.876C929.757 648.522 917.497 647.972 913.637 647.964L913.746 622.628Z"/><path fill="#F4D6AC" transform="scale(0.563125 0.589286)" d="M870.55 389.762C872.968 391.532 875.347 392.921 876.694 395.566L876.553 397.02C873.106 398.472 835.038 397.847 829.241 397.547L828.11 396.935C828.955 394.118 841.322 396.249 844.318 394.048C848.456 394.04 866.783 394.858 868.835 392.453L870.55 389.762Z"/><path fill="#F7F1EB" transform="scale(0.563125 0.589286)" d="M820.437 622.909C824.221 622.376 838.981 621.838 840.895 624.565C838.859 626.166 835.947 625.823 833.273 625.844L833.262 640.753C833.299 643.155 833.588 645.328 832.608 647.45L831.167 647.725C827.671 643.507 830.677 633.569 829.376 626.538L828.161 625.707C823.656 626.118 822.359 627.051 820.437 622.909Z"/><path fill="#F7F1EB" transform="scale(0.563125 0.589286)" d="M845.265 413.764C852.101 417.528 873.267 440.057 877.374 446.98C870.115 444.136 850.677 420.973 845.265 413.764Z"/><path fill="#F7F1EB" transform="scale(0.563125 0.589286)" d="M710.908 349.843C712.629 350.586 712.559 350.51 713.575 352.074C712.532 355.977 701.681 361.197 697.806 363.396C696.673 363.331 696.026 362.702 695.071 362.038L694.866 360.528C697.136 356.518 706.635 352.116 710.908 349.843Z"/><path fill="#F7F1EB" transform="scale(0.563125 0.589286)" d="M727.108 279.543C733.154 281.96 754.88 306.548 758.863 313.329C752.385 308.71 730.346 285.75 727.108 279.543Z"/><path fill="#F7F1EB" transform="scale(0.563125 0.589286)" d="M758.45 414.131C757.359 418.948 732.364 444.409 727.521 447.543C728.417 442.808 752.953 418.133 758.45 414.131Z"/><path fill="#C8BEC1" transform="scale(0.563125 0.589286)" d="M1037.77 577.758C1040.42 576.204 1043.82 577.092 1045.37 579.739C1046.92 582.386 1046.02 585.786 1043.37 587.329C1040.73 588.866 1037.34 587.975 1035.8 585.336C1034.25 582.697 1035.14 579.307 1037.77 577.758Z"/><path fill="#7B6E78" transform="scale(0.563125 0.589286)" d="M1037.49 580.682L1038.5 580.373C1037.58 585.99 1039.86 583.482 1041.12 586.449L1039.42 586.891L1037.65 585.346C1036.8 582.269 1036.73 583.431 1037.49 580.682Z"/><path fill="#F7F1EB" transform="scale(0.563125 0.589286)" d="M876.636 279.632L876.895 280.54C874.153 286.978 854.922 305.167 848.974 310.932L848.817 310.15C850.169 305.32 871.97 283.701 876.636 279.632Z"/><path fill="#F7F1EB" transform="scale(0.563125 0.589286)" d="M881.845 298.521C884.252 298.091 885.535 298.331 887.016 300.24L886.489 301.867C884.275 303.965 876.455 305.749 872.961 306.783C870.499 307.376 870.061 306.407 869.123 304.64L869.797 302.979C872.645 300.744 878.184 299.56 881.845 298.521Z"/><path fill="#F4D6AC" transform="scale(0.563125 0.589286)" d="M802.473 244.187C804.299 247.917 804.72 257.112 805.409 261.368C805.816 263.879 804.747 264.506 803.308 266.457C797.6 263.889 801.569 249.659 802.473 244.187Z"/><path fill="#F1D9BC" transform="scale(0.563125 0.589286)" d="M801.14 455.762C802.104 455.954 803.223 456.298 804.187 456.562C806.498 460.558 803.898 470.678 803.089 475.845C802.573 475.787 802.477 475.466 801.933 474.918C801.424 470.198 799.193 458.969 801.14 455.762Z"/><path fill="#C8BEC1" transform="scale(0.563125 0.589286)" d="M717.571 334.22C719.836 334.39 721.813 334.402 723.162 335.825L723.872 335.622C721.44 336.088 719.31 336.256 717.458 337.914L717.46 339.235C721.266 343.254 724.351 338.996 728.511 346.202C727.379 348.259 726.811 349.844 724.853 351.045L723.853 350.399L725.871 347.481C726.209 341.987 717.746 345.109 714.811 339.591C715.429 336.132 715.222 337.158 717.571 334.22Z"/><path fill="#F7F1EB" transform="scale(0.563125 0.589286)" d="M750.461 409.187L751.807 409.71C750.14 413.426 740.395 420.207 736.841 422.839C735.501 422.505 736.078 422.864 735.236 421.487C736.867 417.823 746.827 411.66 750.461 409.187Z"/><path fill="#F7F1EB" transform="scale(0.563125 0.589286)" d="M850.981 406.984C856.093 408.742 868.283 417.833 870.065 422.799C864.996 421.298 854.068 411.266 850.981 406.984Z"/><path fill="#F7F1EB" transform="scale(0.563125 0.589286)" d="M837.597 415.99C842.493 419.094 848.234 430.516 849.387 436.197C845.101 434.441 839.312 420.537 837.597 415.99Z"/><path fill="#F7F1EB" transform="scale(0.563125 0.589286)" d="M766.756 416.245C767.132 420.464 758.764 432.921 755.734 436.117C754.238 431.335 763.52 419.975 766.756 416.245Z"/><path fill="#F7F1EB" transform="scale(0.563125 0.589286)" d="M733.801 304.576C739.986 305.79 747.783 314.461 752.2 318.955C747.471 318.041 735.87 308.997 733.801 304.576Z"/><path fill="#F7F1EB" transform="scale(0.563125 0.589286)" d="M848.783 290.37C851.989 294.253 842.68 305.081 839.921 308.568L839.308 307.411C840.628 303.095 846.185 294.386 848.783 290.37Z"/><path fill="#F7F1EB" transform="scale(0.563125 0.589286)" d="M755.105 290.364C758.85 292.751 765.708 305.524 766.491 309.91C763.169 306.855 754.636 294.786 755.105 290.364Z"/><path fill="#F7F1EB" transform="scale(0.563125 0.589286)" d="M917.194 633.604C920.76 633.481 925.18 632.927 928.271 634.456L928.635 635.567C925.46 637.711 921.157 637.08 917.255 636.987L917.194 633.604Z"/><path fill="#F1D9BC" transform="scale(0.563125 0.589286)" d="M856.274 378.937C861.372 382.213 865.835 385.963 870.55 389.762L868.835 392.453C867.369 390.193 858.521 381.266 856.274 378.937Z"/></svg>